<?xml version="1.0" encoding="utf-8"?>
<!-- Generator: Adobe Illustrator 28.1.0, SVG Export Plug-In . SVG Version: 6.00 Build 0)  -->
<svg version="1.1" id="Layer_1" xmlns="http://www.w3.org/2000/svg" xmlns:xlink="http://www.w3.org/1999/xlink" x="0px" y="0px"
	 viewBox="0 0 366 353.9" style="enable-background:new 0 0 366 353.9;" xml:space="preserve">
<style type="text/css">
	.st0{fill:#1D1D1B;stroke:#1D1D1B;stroke-width:3;stroke-miterlimit:10;}
	.st1{fill:none;stroke:#000000;stroke-width:5;stroke-miterlimit:10;}
	.st2{fill:#FFFFFF;stroke:#1D1D1B;stroke-miterlimit:10;}
	.st3{fill:none;stroke:#1D1D1B;stroke-width:3;stroke-miterlimit:10;}
	.st4{fill:#1D1D1B;}
	.st5{fill:#FFFFFF;stroke:#1D1D1B;stroke-width:3;stroke-miterlimit:10;}
</style>
<g>
	<circle class="st0" cx="259.5" cy="262.2" r="5"/>
	<circle class="st0" cx="137" cy="161" r="5"/>
	<path class="st1" d="M237.1,352.5c0,0-37.7-56.7-46.6-65.8c-9.5-9.7-27.1-24.4-30.1-28.1c-4-5-4.9-9.3-4.9-9.3s-25.5,7.6-52.2,3.8
		c-24.3-3.5-31.1-15.2-33.9-21c-2.5-5.3-7-21.2-7-21.2s-21.3,2.1-33.4-3c-15.4-6.4-27.1-35.1-26.5-48.7
		c0.7-14.4,10.1-30.5,10.1-30.5s-0.8-14.8,1.2-18.7c2.8-5.6,14.7-15.8,14.7-15.8s5-15.7,9.4-22.2c4-5.7,18.7-12.1,18.7-12.1
		s7.5-13,16-19c8-5.6,22.6-7.2,22.6-7.2s15.6-10.6,24.6-13c15.4-4,25.5-0.7,25.5-0.7s10.3-4.4,19.5-4.3c10.6,0.1,21.6,3.9,21.6,3.9
		s7.9-3.6,17.2-3.6c7.7,0,15,5.5,15,5.5s15.3-1.8,22.5,0.6c7.7,2.6,17.1,12.2,17.1,12.2s13.6,0.9,17.6,3.4
		c5.9,3.6,14.5,17.9,14.5,17.9s12.5,2.7,16.3,6c6.5,5.8,14.1,19.1,14.1,19.1s7.6,1.9,10.2,5.5c1.3,1.8,4.8,11.8,4.8,11.8
		s10.2,6.1,13.8,13.8c2.4,5.1,5.3,22.3,5.3,22.3s7.3,15.2,8.4,22.5c1.3,8.7-2.8,19.3-2.8,19.3s1.9,11.4,0.8,16.9
		c-1,5.3-6.6,11-11.5,14.1c-5,3.2-18.2,4.5-18.2,4.5s-1.7,30.4-6,39.4c-3,6.2-14.9,24.1-21.4,30.8c-6.6,6.9-21.1,17-32.1,20.6
		c-11.5,3.8-31.5,2.8-31.5,2.8l19.5,42.6"/>
	<path class="st2" d="M220.8,0"/>
	<g>
		<g>
			<path class="st3" d="M104.3,162.7c0.2-0.3,10.3-11.8,18.7-17.2c7.6-4.9,20.8-12.5,28.4-13c8.3-0.5,19,0.2,18.1,9.5
				c-1.4,13.5-19.4,16.6-26.5,17.6"/>
			<g>
				<polygon class="st4" points="147.1,152.8 148.3,153.7 143.6,159.5 149.7,163.7 148.8,164.9 141.4,159.8 				"/>
			</g>
		</g>
	</g>
	<g>
		<g>
			<path class="st3" d="M110.3,207.2c-9.1-2-14.6-10-13.8-22.1c0.9-12.4,3.5-15.8,7.9-22.4"/>
			<g>
				<polygon class="st4" points="106.7,170.2 105.2,170.5 104,163.2 96.8,164.9 96.5,163.4 105.3,161.3 				"/>
			</g>
		</g>
	</g>
	<g>
		<g>
			<path class="st3" d="M182.7,168.3c-7.4,1.2-16,3.5-25.8,10c-7.9,5.3-10.2,7.8-19.6,16.1c-8.2,7.3-15.9,15.1-27,12.7"/>
			<g>
				<polygon class="st4" points="116.4,202.3 117.2,203.5 110.8,207.3 115,213.4 113.8,214.2 108.7,206.9 				"/>
			</g>
		</g>
	</g>
	<g>
		<g>
			<path class="st3" d="M223.8,156.2c0,3.7-8.6,6.1-13.1,6.6c-6.3,0.6-19.5,4.3-28.1,5.6"/>
			<g>
				<polygon class="st4" points="186.6,161.5 187.8,162.4 183.2,168.3 189.4,172.4 188.5,173.6 181.1,168.6 				"/>
			</g>
		</g>
	</g>
	<path class="st3" d="M72.6,201.4c-1.3-8-0.4-24.1,4.6-32.5"/>
	<g>
		<g>
			<path class="st3" d="M137.5,227c-9.3,5.7-33.7,13.5-42.9,8.9c-12.4-6.1-20.4-24.6-21.9-34.4"/>
			<g>
				<polygon class="st4" points="79.4,205.4 78.5,206.6 72.7,202 68.5,208.1 67.3,207.3 72.4,199.8 				"/>
			</g>
		</g>
	</g>
	<g>
		<g>
			<path class="st3" d="M267.8,173.2c-12.6,6.1-32.8,11-48.8,14.1c-14.5,2.8-34.9,9.1-43.7,13.8c-10.1,5.5-27.7,19.6-37.9,25.8"/>
			<g>
				<polygon class="st4" points="138.5,219.2 139.9,219.6 137.9,226.7 145.2,228.1 144.9,229.6 136.1,227.8 				"/>
			</g>
		</g>
	</g>
	<g>
		<g>
			<path class="st3" d="M351.3,123.6c0,0-22.1,14.5-32.8,21.3c-9.8,6.3-40.1,23.1-50.6,28.2"/>
			<g>
				<polygon class="st4" points="269.6,165.5 271,166.1 268.3,172.9 275.4,175.1 274.9,176.6 266.3,173.9 				"/>
			</g>
		</g>
	</g>
	<path class="st3" d="M285.7,85c0.2-8-2.6-8.4-4-15.6c-2.2-11.1,3.6-20.8,3.6-20.8"/>
	<g>
		<g>
			<path class="st3" d="M317.1,104.2c-5.2,2.2-14.5,6.1-18.5,8.4c-6.2,3.5-11.7,10-16.5,10.3c-2.7,0.2-8.3-0.1-6.6-9.7
				c1.4-7.6,9.9-20.6,10.2-28.2"/>
			<g>
				<polygon class="st4" points="291.6,90.1 290.5,91.1 285.6,85.5 280.4,90.8 279.4,89.7 285.7,83.3 				"/>
			</g>
		</g>
	</g>
	<g>
		<g>
			<path class="st3" d="M334.1,96.1c-2.4,1.7-12.9,6.4-17,8.2"/>
			<g>
				<polygon class="st4" points="319.3,96.6 320.7,97.2 317.7,104 324.6,106.5 324.1,107.9 315.6,104.9 				"/>
			</g>
		</g>
	</g>
	<path class="st3" d="M85.5,154.3c3.5-5.1,11.2-14.9,15.8-19c3.6-3.2,16.3-12.3,29.8-16.7c9.7-3.1,21.6-5.6,34.8-3.9
		c13.4,1.7,23.4,3,33.4,10.8c8.8,6.9,18,18.8,21.5,25.8"/>
	<g>
		<g>
			<path class="st3" d="M65.3,114c-1.3,11-10.8,27.4-13,36.2c-3.3,13.2-1.9,25.1-0.9,28.1c1.6,4.5,5.2,11.7,12.4,8.9
				c4.1-1.6,6.5-7.4,8.4-10.1c3.7-5.4,9.5-17.4,13.3-22.8"/>
			<g>
				<polygon class="st4" points="87.7,161.9 86.2,162.1 85.2,154.8 77.9,156.3 77.6,154.8 86.4,153 				"/>
			</g>
		</g>
	</g>
	<g>
		<g>
			<path class="st3" d="M57.3,60.6c-3.4,7.1-3.6,14.9-1.4,18.9c5,9,11.3,17.9,9.4,34.4"/>
			<g>
				<polygon class="st4" points="59.7,108.3 61,107.4 65.3,113.4 71,108.6 71.9,109.7 65.1,115.6 				"/>
			</g>
		</g>
	</g>
	<g>
		<g>
			<path class="st3" d="M111.7,77.4c1.3,5.9-0.5,12.6-3.6,18.2c-2.1,3.7-7.1,10.1-11.4,17.1c-4.7,7.8-1.3,15.3,1.1,16.5
				c6.3,3.1,14.8-2.1,23.9-7.1"/>
			<g>
				<polygon class="st4" points="120.4,129.8 118.9,129.3 121.3,122.3 114.1,120.5 114.4,119.1 123.2,121.2 				"/>
			</g>
		</g>
	</g>
	<g>
		<g>
			<path class="st3" d="M95.3,35C74.9,51.9,80,56.5,85.2,59.3c7.2,3.9,21.5,9.9,26.5,18.1"/>
			<g>
				<polygon class="st4" points="103.9,76.3 104.3,74.9 111.4,76.9 112.9,69.7 114.4,70 112.6,78.8 				"/>
			</g>
		</g>
	</g>
	<g>
		<g>
			<path class="st3" d="M152.8,52.4c2.8,17.5-16.3,26.2-17.4,35.3c-1.3,10.9,4.4,13.6,8.9,17.1c6.3,4.8,30.4,11.6,39,12.7"/>
			<g>
				<polygon class="st4" points="177.5,122.8 176.6,121.6 182.7,117.3 178,111.6 179.1,110.7 184.8,117.6 				"/>
			</g>
		</g>
	</g>
	<g>
		<g>
			<path class="st3" d="M145.3,20.2c-1.7,3.2-7.4,11.3-5.4,16c2.7,6.2,8.8,8.8,12.9,16.2"/>
			<g>
				<polygon class="st4" points="145,50.9 145.5,49.5 152.5,51.8 154.3,44.7 155.8,45.1 153.6,53.8 				"/>
			</g>
		</g>
	</g>
	<path class="st3" d="M211.2,46.8c-0.9-9.4,2.1-19.3,6.7-24.2"/>
	<g>
		<g>
			<path class="st3" d="M205.4,106c5.1,1.9,5.4,14.6,13,14.2c11.6-0.6,8.6-21.7,7.6-33.9c-1.5-17.4-12.5-30.6-14.8-39.5"/>
			<g>
				<polygon class="st4" points="218.4,50.1 217.6,51.3 211.3,47.4 207.8,53.9 206.5,53.2 210.8,45.3 				"/>
			</g>
		</g>
	</g>
	<g>
		<g>
			<path class="st3" d="M182,60.5c-0.6,7.5-5.5,14.3-5.3,22.1c0.2,7.6,2.9,10.7,9.1,15.8c8,6.5,14,5.5,19.6,7.7"/>
			<g>
				<polygon class="st4" points="198.6,110 198,108.6 204.9,105.8 201.6,99.2 203,98.5 206.9,106.6 				"/>
			</g>
		</g>
	</g>
	<g>
		<g>
			<path class="st3" d="M186.9,20.8c0,0-10.3,5.8-8.8,13c2.1,10.1,4.4,20.7,3.9,26.7"/>
			<g>
				<polygon class="st4" points="176.3,55 177.4,54.1 182,59.9 187.5,54.9 188.5,56.1 181.8,62.1 				"/>
			</g>
		</g>
	</g>
	<g>
		<g>
			<g>
				<path class="st3" d="M210.9,287.4c3.2,4.6,21.4,29.3,24.3,34.1c3.6,6,14,25,17,30.3"/>
				<g>
					<polygon class="st4" points="244.5,350.4 244.9,349 252,351.3 253.8,344.2 255.2,344.5 253,353.3 					"/>
				</g>
			</g>
		</g>
		<g>
			<g>
				<path class="st3" d="M210.6,216.8c-11.3,7.8-17.8,18.4-18.9,22.8c-4.6,19.9,10,34.7,19.2,47.8"/>
				<g>
					<polygon class="st4" points="203.1,286.9 203.4,285.4 210.6,287 211.6,279.6 213.1,279.8 211.9,288.8 					"/>
				</g>
			</g>
		</g>
		<g>
			<g>
				<path class="st3" d="M332.3,165.4c-13.6,8.4-36.8,18.3-48.6,23.4c-20.2,8.8-62.1,20.4-73,28"/>
				<g>
					<polygon class="st4" points="211.2,209 212.7,209.3 211.1,216.5 218.4,217.6 218.2,219 209.3,217.8 					"/>
				</g>
			</g>
		</g>
		<g>
			<g>
				<path class="st3" d="M358.4,144.3c-7.4,9.3-11.9,12.3-26.1,21.1"/>
				<g>
					<polygon class="st4" points="333.3,157.6 334.7,158 332.8,165.1 340,166.5 339.8,168 330.9,166.3 					"/>
				</g>
			</g>
		</g>
	</g>
	<g>
		<g>
			<path class="st3" d="M252.4,112.6c2.4-10.6-2.4-31.1-2.4-40.7c0-6.5,2.4-19.4,4.1-25.7c0.6-2.5,3.1-9.8,3.1-9.8"/>
			<g>
				<polygon class="st4" points="261.5,43.1 260.1,43.7 257,37 250.5,40.6 249.8,39.3 257.7,34.9 				"/>
			</g>
		</g>
	</g>
	<g>
		<g>
			<path class="st3" d="M228.4,152.8c17.5-16,21-26.5,24-40.2"/>
			<g>
				<polygon class="st4" points="257.3,118.8 256,119.6 252.3,113.2 246.2,117.4 245.3,116.1 252.8,111 				"/>
			</g>
		</g>
	</g>
	<path class="st3" d="M311.9,128.2c8.5-4.5,34.5-18.1,34.5-18.1"/>
	<g>
		<g>
			<path class="st3" d="M251.8,162.7c8.2-3,22-13.1,29.1-16.9c8.1-4.4,22.9-13.2,31-17.6"/>
			<g>
				<polygon class="st4" points="310.4,135.9 309,135.4 311.4,128.4 304.3,126.5 304.7,125.1 313.4,127.4 				"/>
			</g>
		</g>
	</g>
	<g>
		<g>
			<path class="st3" d="M227.4,159.2c5.7,4.9,18.6,4.7,24.4,3.5"/>
			<g>
				<polygon class="st4" points="248.1,169.7 246.9,168.8 251.2,162.8 244.9,158.9 245.7,157.7 253.4,162.3 				"/>
			</g>
		</g>
	</g>
	<path class="st3" d="M283.6,250.1c-8.8-3.8-19.8,2.1-22.9,9"/>
	<g>
		<g>
			<path class="st3" d="M257.3,285.5c6.3,1.2,17.5-0.7,25-5.5c6-3.8,9.9-11.8,9.8-16.6c-0.1-4-2.5-8.7-8.6-13.3"/>
			<g>
				<polygon class="st4" points="291.2,248.2 291.4,249.7 284,250.4 285.3,257.7 283.8,258 282.3,249.1 				"/>
			</g>
		</g>
	</g>
	<g>
		<g>
			<path class="st3" d="M262.1,223.8c-13.3,4.3-22.3,8.4-26.8,17.1c-5.2,10-2.5,23,1,29.3c4.7,8.4,14.4,14.1,21.1,15.3"/>
			<g>
				<polygon class="st4" points="251.3,290.6 250.5,289.4 256.8,285.4 252.4,279.5 253.6,278.6 258.9,285.8 				"/>
			</g>
		</g>
	</g>
	<g>
		<g>
			<path class="st3" d="M331.5,210.8c-12.1,1.6-24.1,4.2-32.8,5.7c-8.3,1.5-28.7,4.7-36.7,7.3"/>
			<g>
				<polygon class="st4" points="264.9,216.5 266.2,217.2 262.6,223.7 269.3,226.8 268.7,228.1 260.5,224.3 				"/>
			</g>
		</g>
	</g>
	<circle class="st5" cx="223.8" cy="156.2" r="5"/>
</g>
</svg>
