<?xml version="1.0" encoding="utf-8"?>
<!-- Generator: Adobe Illustrator 28.1.0, SVG Export Plug-In . SVG Version: 6.00 Build 0)  -->
<svg version="1.1" id="Layer_1" xmlns="http://www.w3.org/2000/svg" xmlns:xlink="http://www.w3.org/1999/xlink" x="0px" y="0px"
	 viewBox="0 0 433 393.9" style="enable-background:new 0 0 433 393.9;" xml:space="preserve">
<style type="text/css">
	.st0{fill:#1D1D1B;stroke:#1D1D1B;stroke-width:3;stroke-miterlimit:10;}
	.st1{fill:none;stroke:#000000;stroke-width:5;stroke-miterlimit:10;}
	.st2{fill:#FFFFFF;stroke:#1D1D1B;stroke-miterlimit:10;}
	.st3{fill:none;stroke:#1D1D1B;stroke-width:3;stroke-miterlimit:10;}
	.st4{fill:#1D1D1B;}
	.st5{fill:#FFFFFF;stroke:#1D1D1B;stroke-width:3;stroke-miterlimit:10;}
</style>
<g>
	<circle class="st0" cx="288.5" cy="282.2" r="5"/>
	<circle class="st0" cx="166" cy="181" r="5"/>
	<path class="st1" d="M266.1,372.5c0,0-37.7-56.7-46.6-65.8c-9.5-9.7-27.1-24.4-30.1-28.1c-4-5-4.9-9.3-4.9-9.3s-25.5,7.6-52.2,3.8
		c-24.3-3.5-31.1-15.2-33.9-21c-2.5-5.3-7-21.2-7-21.2s-21.3,2.1-33.4-3c-15.4-6.4-27.1-35.1-26.5-48.7
		c0.7-14.4,10.1-30.5,10.1-30.5s-0.8-14.8,1.2-18.7c2.8-5.6,14.7-15.8,14.7-15.8s5-15.7,9.4-22.2c4-5.7,18.7-12.1,18.7-12.1
		s7.5-13,16-19c8-5.6,22.6-7.2,22.6-7.2s15.6-10.6,24.6-13c15.4-4,25.5-0.7,25.5-0.7s10.3-4.4,19.5-4.3c10.6,0.1,21.6,3.9,21.6,3.9
		s7.9-3.6,17.2-3.6c7.7,0,15,5.5,15,5.5s15.3-1.8,22.5,0.6c7.7,2.6,17.1,12.2,17.1,12.2s13.6,0.9,17.6,3.4
		c5.9,3.6,14.5,17.9,14.5,17.9s12.5,2.7,16.3,6c6.5,5.8,14.1,19.1,14.1,19.1s7.6,1.9,10.2,5.5c1.3,1.8,4.8,11.8,4.8,11.8
		s10.2,6.1,13.8,13.8c2.4,5.1,5.3,22.3,5.3,22.3s7.3,15.2,8.4,22.5c1.3,8.7-2.8,19.3-2.8,19.3s1.9,11.4,0.8,16.9
		c-1,5.3-6.6,11-11.5,14.1c-5,3.2-18.2,4.5-18.2,4.5s-1.7,30.4-6,39.4c-3,6.2-14.9,24.1-21.4,30.8c-6.6,6.9-21.1,17-32.1,20.6
		c-11.5,3.8-31.5,2.8-31.5,2.8l19.5,42.6"/>
	<path class="st2" d="M249.8,20"/>
	<g>
		<g>
			<path class="st3" d="M133.3,182.7c0.2-0.3,10.3-11.8,18.7-17.2c7.6-4.9,20.8-12.5,28.4-13c8.3-0.5,19,0.2,18.1,9.5
				c-1.4,13.5-19.4,16.6-26.5,17.6"/>
			<g>
				<polygon class="st4" points="176.1,172.8 177.3,173.7 172.6,179.5 178.7,183.7 177.8,184.9 170.4,179.8 				"/>
			</g>
		</g>
	</g>
	<g>
		<g>
			<path class="st3" d="M139.3,227.2c-9.1-2-14.6-10-13.8-22.1c0.9-12.4,3.5-15.8,7.9-22.4"/>
			<g>
				<polygon class="st4" points="135.7,190.2 134.2,190.5 133,183.2 125.8,184.9 125.5,183.4 134.3,181.3 				"/>
			</g>
		</g>
	</g>
	<g>
		<g>
			<path class="st3" d="M211.7,188.3c-7.4,1.2-16,3.5-25.8,10c-7.9,5.3-10.2,7.8-19.6,16.1c-8.2,7.3-15.9,15.1-27,12.7"/>
			<g>
				<polygon class="st4" points="145.4,222.3 146.2,223.5 139.8,227.3 144,233.4 142.8,234.2 137.7,226.9 				"/>
			</g>
		</g>
	</g>
	<g>
		<g>
			<path class="st3" d="M252.8,176.2c0,3.7-8.6,6.1-13.1,6.6c-6.3,0.6-19.5,4.3-28.1,5.6"/>
			<g>
				<polygon class="st4" points="215.6,181.5 216.8,182.4 212.2,188.3 218.4,192.4 217.5,193.6 210.1,188.6 				"/>
			</g>
		</g>
	</g>
	<path class="st3" d="M101.6,221.4c-1.3-8-0.4-24.1,4.6-32.5"/>
	<g>
		<g>
			<path class="st3" d="M166.5,247c-9.3,5.7-33.7,13.5-42.9,8.9c-12.4-6.1-20.4-24.6-21.9-34.4"/>
			<g>
				<polygon class="st4" points="108.4,225.4 107.5,226.6 101.7,222 97.5,228.1 96.3,227.3 101.4,219.8 				"/>
			</g>
		</g>
	</g>
	<g>
		<g>
			<path class="st3" d="M296.8,193.2c-12.6,6.1-32.8,11-48.8,14.1c-14.5,2.8-34.9,9.1-43.7,13.8c-10.1,5.5-27.7,19.6-37.9,25.8"/>
			<g>
				<polygon class="st4" points="167.5,239.2 168.9,239.6 166.9,246.7 174.2,248.1 173.9,249.6 165.1,247.8 				"/>
			</g>
		</g>
	</g>
	<g>
		<g>
			<path class="st3" d="M380.3,143.6c0,0-22.1,14.5-32.8,21.3c-9.8,6.3-40.1,23.1-50.6,28.2"/>
			<g>
				<polygon class="st4" points="298.6,185.5 300,186.1 297.3,192.9 304.4,195.1 303.9,196.6 295.3,193.9 				"/>
			</g>
		</g>
	</g>
	<path class="st3" d="M314.7,105c0.2-8-2.6-8.4-4-15.6c-2.2-11.1,3.6-20.8,3.6-20.8"/>
	<g>
		<g>
			<path class="st3" d="M346.1,124.2c-5.2,2.2-14.5,6.1-18.5,8.4c-6.2,3.5-11.7,10-16.5,10.3c-2.7,0.2-8.3-0.1-6.6-9.7
				c1.4-7.6,9.9-20.6,10.2-28.2"/>
			<g>
				<polygon class="st4" points="320.6,110.1 319.5,111.1 314.6,105.5 309.4,110.8 308.4,109.7 314.7,103.3 				"/>
			</g>
		</g>
	</g>
	<g>
		<g>
			<path class="st3" d="M363.1,116.1c-2.4,1.7-12.9,6.4-17,8.2"/>
			<g>
				<polygon class="st4" points="348.3,116.6 349.7,117.2 346.7,124 353.6,126.5 353.1,127.9 344.6,124.9 				"/>
			</g>
		</g>
	</g>
	<path class="st3" d="M114.5,174.3c3.5-5.1,11.2-14.9,15.8-19c3.6-3.2,16.3-12.3,29.8-16.7c9.7-3.1,21.6-5.6,34.8-3.9
		c13.4,1.7,23.4,3,33.4,10.8c8.8,6.9,18,18.8,21.5,25.8"/>
	<g>
		<g>
			<path class="st3" d="M94.3,134c-1.3,11-10.8,27.4-13,36.2c-3.3,13.2-1.9,25.1-0.9,28.1c1.6,4.5,5.2,11.7,12.4,8.9
				c4.1-1.6,6.5-7.4,8.4-10.1c3.7-5.4,9.5-17.4,13.3-22.8"/>
			<g>
				<polygon class="st4" points="116.7,181.9 115.2,182.1 114.2,174.8 106.9,176.3 106.6,174.8 115.4,173 				"/>
			</g>
		</g>
	</g>
	<g>
		<g>
			<path class="st3" d="M86.3,80.6c-3.4,7.1-3.6,14.9-1.4,18.9c5,9,11.3,17.9,9.4,34.4"/>
			<g>
				<polygon class="st4" points="88.7,128.3 90,127.4 94.3,133.4 100,128.6 100.9,129.7 94.1,135.6 				"/>
			</g>
		</g>
	</g>
	<g>
		<g>
			<path class="st3" d="M140.7,97.4c1.3,5.9-0.5,12.6-3.6,18.2c-2.1,3.7-7.1,10.1-11.4,17.1c-4.7,7.8-1.3,15.3,1.1,16.5
				c6.3,3.1,14.8-2.1,23.9-7.1"/>
			<g>
				<polygon class="st4" points="149.4,149.8 147.9,149.3 150.3,142.3 143.1,140.5 143.4,139.1 152.2,141.2 				"/>
			</g>
		</g>
	</g>
	<g>
		<g>
			<path class="st3" d="M124.3,55c-20.4,16.9-15.3,21.5-10.1,24.3c7.2,3.9,21.5,9.9,26.5,18.1"/>
			<g>
				<polygon class="st4" points="132.9,96.3 133.3,94.9 140.4,96.9 141.9,89.7 143.4,90 141.6,98.8 				"/>
			</g>
		</g>
	</g>
	<g>
		<g>
			<path class="st3" d="M181.8,72.4c2.8,17.5-16.3,26.2-17.4,35.3c-1.3,10.9,4.4,13.6,8.9,17.1c6.3,4.8,30.4,11.6,39,12.7"/>
			<g>
				<polygon class="st4" points="206.5,142.8 205.6,141.6 211.7,137.3 207,131.6 208.1,130.7 213.8,137.6 				"/>
			</g>
		</g>
	</g>
	<g>
		<g>
			<path class="st3" d="M174.3,40.2c-1.7,3.2-7.4,11.3-5.4,16c2.7,6.2,8.8,8.8,12.9,16.2"/>
			<g>
				<polygon class="st4" points="174,70.9 174.5,69.5 181.5,71.8 183.3,64.7 184.8,65.1 182.6,73.8 				"/>
			</g>
		</g>
	</g>
	<path class="st3" d="M240.2,66.8c-0.9-9.4,2.1-19.3,6.7-24.2"/>
	<g>
		<g>
			<path class="st3" d="M234.4,126c5.1,1.9,5.4,14.6,13,14.2c11.6-0.6,8.6-21.7,7.6-33.9c-1.5-17.4-12.5-30.6-14.8-39.5"/>
			<g>
				<polygon class="st4" points="247.4,70.1 246.6,71.3 240.3,67.4 236.8,73.9 235.5,73.2 239.8,65.3 				"/>
			</g>
		</g>
	</g>
	<g>
		<g>
			<path class="st3" d="M211,80.5c-0.6,7.5-5.5,14.3-5.3,22.1c0.2,7.6,2.9,10.7,9.1,15.8c8,6.5,14,5.5,19.6,7.7"/>
			<g>
				<polygon class="st4" points="227.6,130 227,128.6 233.9,125.8 230.6,119.2 232,118.5 235.9,126.6 				"/>
			</g>
		</g>
	</g>
	<g>
		<g>
			<path class="st3" d="M215.9,40.8c0,0-10.3,5.8-8.8,13c2.1,10.1,4.4,20.7,3.9,26.7"/>
			<g>
				<polygon class="st4" points="205.3,75 206.4,74.1 211,79.9 216.5,74.9 217.5,76.1 210.8,82.1 				"/>
			</g>
		</g>
	</g>
	<g>
		<g>
			<g>
				<path class="st3" d="M239.9,307.4c3.2,4.6,21.4,29.3,24.3,34.1c3.6,6,14,25,17,30.3"/>
				<g>
					<polygon class="st4" points="273.5,370.4 273.9,369 281,371.3 282.8,364.2 284.2,364.5 282,373.3 					"/>
				</g>
			</g>
		</g>
		<g>
			<g>
				<path class="st3" d="M239.6,236.8c-11.3,7.8-17.8,18.4-18.9,22.8c-4.6,19.9,10,34.7,19.2,47.8"/>
				<g>
					<polygon class="st4" points="232.1,306.9 232.4,305.4 239.6,307 240.6,299.6 242.1,299.8 240.9,308.8 					"/>
				</g>
			</g>
		</g>
		<g>
			<g>
				<path class="st3" d="M361.3,185.4c-13.6,8.4-36.8,18.3-48.6,23.4c-20.2,8.8-62.1,20.4-73,28"/>
				<g>
					<polygon class="st4" points="240.2,229 241.7,229.3 240.1,236.5 247.4,237.6 247.2,239 238.3,237.8 					"/>
				</g>
			</g>
		</g>
		<g>
			<g>
				<path class="st3" d="M387.4,164.3c-7.4,9.3-11.9,12.3-26.1,21.1"/>
				<g>
					<polygon class="st4" points="362.3,177.6 363.7,178 361.8,185.1 369,186.5 368.8,188 359.9,186.3 					"/>
				</g>
			</g>
		</g>
	</g>
	<g>
		<g>
			<path class="st3" d="M281.4,132.6c2.4-10.6-2.4-31.1-2.4-40.7c0-6.5,2.4-19.4,4.1-25.7c0.6-2.5,3.1-9.8,3.1-9.8"/>
			<g>
				<polygon class="st4" points="290.5,63.1 289.1,63.7 286,57 279.5,60.6 278.8,59.3 286.7,54.9 				"/>
			</g>
		</g>
	</g>
	<g>
		<g>
			<path class="st3" d="M257.4,172.8c17.5-16,21-26.5,24-40.2"/>
			<g>
				<polygon class="st4" points="286.3,138.8 285,139.6 281.3,133.2 275.2,137.4 274.3,136.1 281.8,131 				"/>
			</g>
		</g>
	</g>
	<path class="st3" d="M340.9,148.2c8.5-4.5,34.5-18.1,34.5-18.1"/>
	<g>
		<g>
			<path class="st3" d="M280.8,182.7c8.2-3,22-13.1,29.1-16.9c8.1-4.4,22.9-13.2,31-17.6"/>
			<g>
				<polygon class="st4" points="339.4,155.9 338,155.4 340.4,148.4 333.3,146.5 333.7,145.1 342.4,147.4 				"/>
			</g>
		</g>
	</g>
	<g>
		<g>
			<path class="st3" d="M256.4,179.2c5.7,4.9,18.6,4.7,24.4,3.5"/>
			<g>
				<polygon class="st4" points="277.1,189.7 275.9,188.8 280.2,182.8 273.9,178.9 274.7,177.7 282.4,182.3 				"/>
			</g>
		</g>
	</g>
	<path class="st3" d="M312.6,270.1c-8.8-3.8-19.8,2.1-22.9,9"/>
	<g>
		<g>
			<path class="st3" d="M286.3,305.5c6.3,1.2,17.5-0.7,25-5.5c6-3.8,9.9-11.8,9.8-16.6c-0.1-4-2.5-8.7-8.6-13.3"/>
			<g>
				<polygon class="st4" points="320.2,268.2 320.4,269.7 313,270.4 314.3,277.7 312.8,278 311.3,269.1 				"/>
			</g>
		</g>
	</g>
	<g>
		<g>
			<path class="st3" d="M291.1,243.8c-13.3,4.3-22.3,8.4-26.8,17.1c-5.2,10-2.5,23,1,29.3c4.7,8.4,14.4,14.1,21.1,15.3"/>
			<g>
				<polygon class="st4" points="280.3,310.6 279.5,309.4 285.8,305.4 281.4,299.5 282.6,298.6 287.9,305.8 				"/>
			</g>
		</g>
	</g>
	<g>
		<g>
			<path class="st3" d="M360.5,230.8c-12.1,1.6-24.1,4.2-32.8,5.7c-8.3,1.5-28.7,4.7-36.7,7.3"/>
			<g>
				<polygon class="st4" points="293.9,236.5 295.2,237.2 291.6,243.7 298.3,246.8 297.7,248.1 289.5,244.3 				"/>
			</g>
		</g>
	</g>
	<circle class="st5" cx="252.8" cy="176.2" r="5"/>
</g>
</svg>
